<?xml version="1.0" encoding="UTF-8" standalone="no"?>
<!-- Created with Inkscape (http://www.inkscape.org/) -->

<svg
   width="100"
   height="100"
   viewBox="0 0 100 100"
   version="1.1"
   id="svg1"
   sodipodi:docname="ribbon-windows.svg"
   inkscape:version="1.4.3 (0d15f75, 2025-12-25)"
   xmlns:inkscape="http://www.inkscape.org/namespaces/inkscape"
   xmlns:sodipodi="http://sodipodi.sourceforge.net/DTD/sodipodi-0.dtd"
   xmlns="http://www.w3.org/2000/svg"
   xmlns:svg="http://www.w3.org/2000/svg">
  <sodipodi:namedview
     id="namedview1"
     pagecolor="#ffffff"
     bordercolor="#111111"
     borderopacity="1"
     inkscape:showpageshadow="0"
     inkscape:pageopacity="0"
     inkscape:pagecheckerboard="1"
     inkscape:deskcolor="#d1d1d1"
     inkscape:document-units="px"
     inkscape:zoom="5.6791767"
     inkscape:cx="47.454061"
     inkscape:cy="50.535494"
     inkscape:window-width="1710"
     inkscape:window-height="1045"
     inkscape:window-x="0"
     inkscape:window-y="39"
     inkscape:window-maximized="0"
     inkscape:current-layer="svg1"
     showguides="true">
    <sodipodi:guide
       position="92.415493,64.260675"
       orientation="1,0"
       id="guide16"
       inkscape:locked="false" />
    <sodipodi:guide
       position="35.339258,7.7178624"
       orientation="0,-1"
       id="guide17"
       inkscape:locked="false" />
    <sodipodi:guide
       position="89.481668,3.0504132"
       orientation="0,-1"
       id="guide18"
       inkscape:locked="false" />
    <sodipodi:guide
       position="96.68968,53.632813"
       orientation="1,0"
       id="guide19"
       inkscape:locked="false" />
    <sodipodi:guide
       position="72.958486,32.582665"
       orientation="1,0"
       id="guide21"
       inkscape:locked="false" />
  </sodipodi:namedview>
  <defs
     id="defs1">
    <inkscape:path-effect
       effect="fillet_chamfer"
       id="path-effect28"
       is_visible="true"
       lpeversion="1"
       nodesatellites_param="F,0,0,1,0,0,0,1 @ F,0,0,1,0,0,0,1 @ F,0,0,1,0,1.1849893,0,1 @ F,0,0,1,0,0,0,1 @ F,0,1,1,0,0.43813369,0,1 @ F,0,0,1,0,0,0,1 @ F,0,0,1,0,0,0,1 @ F,0,0,1,0,0,0,1 @ F,0,0,1,0,0.43813369,0,1 @ F,0,0,1,0,0,0,1 @ F,0,0,1,0,1.1849893,0,1 @ F,0,0,1,0,0,0,1"
       radius="0"
       unit="px"
       method="auto"
       mode="F"
       chamfer_steps="1"
       flexible="false"
       use_knot_distance="true"
       apply_no_radius="true"
       apply_with_radius="true"
       only_selected="false"
       hide_knots="false" />
    <inkscape:path-effect
       effect="mirror_symmetry"
       start_point="12.043176,-0.8165787"
       end_point="12.043176,21.795018"
       center_point="12.043176,10.48922"
       id="path-effect27"
       is_visible="true"
       lpeversion="1.2"
       lpesatellites=""
       mode="free"
       discard_orig_path="false"
       fuse_paths="false"
       oposite_fuse="false"
       split_items="false"
       split_open="false"
       link_styles="false" />
    <inkscape:path-effect
       effect="mirror_symmetry"
       start_point="12.017397,8.053087"
       end_point="12.017397,13.708929"
       center_point="12.017397,10.881008"
       id="path-effect26"
       is_visible="true"
       lpeversion="1.2"
       lpesatellites=""
       mode="free"
       discard_orig_path="false"
       fuse_paths="false"
       oposite_fuse="false"
       split_items="false"
       split_open="false"
       link_styles="false" />
    <inkscape:path-effect
       effect="fillet_chamfer"
       id="path-effect25"
       is_visible="true"
       lpeversion="1"
       nodesatellites_param="F,0,0,1,0,0,0,1 @ F,0,0,1,0,0,0,1 @ F,0,1,1,0,3.1561097,0,1 @ F,0,0,1,0,0,0,1 @ F,0,0,1,0,0,0,1"
       radius="0"
       unit="px"
       method="auto"
       mode="F"
       chamfer_steps="1"
       flexible="false"
       use_knot_distance="true"
       apply_no_radius="true"
       apply_with_radius="true"
       only_selected="false"
       hide_knots="false" />
    <inkscape:path-effect
       effect="fillet_chamfer"
       id="path-effect24"
       is_visible="true"
       lpeversion="1"
       nodesatellites_param="F,0,0,1,0,0,0,1 @ F,0,0,1,0,0,0,1 @ F,0,0,1,0,5.0263023,0,1 @ F,0,0,1,0,0,0,1 @ F,0,0,1,0,0,0,1 @ F,0,0,1,0,0,0,1 @ F,0,1,1,0,5.0263023,0,1 @ F,0,0,1,0,0,0,1"
       radius="0"
       unit="px"
       method="auto"
       mode="F"
       chamfer_steps="1"
       flexible="false"
       use_knot_distance="true"
       apply_no_radius="true"
       apply_with_radius="true"
       only_selected="false"
       hide_knots="false" />
    <inkscape:path-effect
       effect="mirror_symmetry"
       start_point="73.671291,64.12519"
       end_point="73.671291,80.603848"
       center_point="73.671291,72.364519"
       id="path-effect22"
       is_visible="true"
       lpeversion="1.2"
       lpesatellites=""
       mode="free"
       discard_orig_path="false"
       fuse_paths="false"
       oposite_fuse="false"
       split_items="false"
       split_open="false"
       link_styles="false" />
    <inkscape:path-effect
       effect="mirror_symmetry"
       start_point="41.015211,55.592912"
       end_point="41.015211,79.845776"
       center_point="41.015211,67.719344"
       id="path-effect21"
       is_visible="true"
       lpeversion="1.2"
       lpesatellites=""
       mode="free"
       discard_orig_path="false"
       fuse_paths="false"
       oposite_fuse="false"
       split_items="false"
       split_open="false"
       link_styles="false" />
    <inkscape:path-effect
       effect="fillet_chamfer"
       id="path-effect20"
       is_visible="true"
       lpeversion="1"
       nodesatellites_param="F,0,0,1,0,0,0,1 @ F,0,0,1,0,0,0,1 @ F,0,1,1,0,5.5070825,0,1 @ F,0,0,1,0,0,0,1 @ F,0,0,1,0,0,0,1 @ F,0,0,1,0,0,0,1 @ F,0,0,1,0,5.5070825,0,1 @ F,0,0,1,0,0,0,1"
       radius="0"
       unit="px"
       method="auto"
       mode="F"
       chamfer_steps="1"
       flexible="false"
       use_knot_distance="true"
       apply_no_radius="true"
       apply_with_radius="true"
       only_selected="false"
       hide_knots="false" />
    <inkscape:path-effect
       effect="fillet_chamfer"
       id="path-effect16"
       is_visible="true"
       lpeversion="1"
       nodesatellites_param="F,0,0,1,0,4.681567,0,1 @ F,0,1,1,0,4.681567,0,1 @ F,0,1,1,0,4.681567,0,1 @ F,0,1,1,0,4.681567,0,1 | F,0,1,1,0,4.681567,0,1 @ F,0,1,1,0,4.681567,0,1 @ F,0,1,1,0,4.681567,0,1 @ F,0,1,1,0,4.681567,0,1 | F,0,1,1,0,4.681567,0,1 @ F,0,1,1,0,4.681567,0,1 @ F,0,1,1,0,4.681567,0,1 @ F,0,1,1,0,4.681567,0,1 | F,0,1,1,0,4.681567,0,1 @ F,0,1,1,0,4.681567,0,1 @ F,0,1,1,0,4.681567,0,1 @ F,0,1,1,0,4.681567,0,1"
       radius="0"
       unit="px"
       method="auto"
       mode="F"
       chamfer_steps="1"
       flexible="false"
       use_knot_distance="true"
       apply_no_radius="true"
       apply_with_radius="true"
       only_selected="false"
       hide_knots="false" />
    <inkscape:path-effect
       effect="spiro"
       id="path-effect1"
       is_visible="true"
       lpeversion="1" />
    <inkscape:path-effect
       effect="mirror_symmetry"
       start_point="41.015211,55.592912"
       end_point="41.015211,79.845776"
       center_point="41.015211,67.719344"
       id="path-effect21-9"
       is_visible="true"
       lpeversion="1.2"
       lpesatellites=""
       mode="free"
       discard_orig_path="false"
       fuse_paths="false"
       oposite_fuse="false"
       split_items="false"
       split_open="false"
       link_styles="false" />
  </defs>
  <path
     id="rect1"
     style="display:inline;fill:currentColor;stroke-width:1.06962"
     d="m 49.857643,56.226386 v 10.781397 a 4.681567,4.681567 45 0 0 4.681567,4.681567 h 10.779444 a 4.681567,4.681567 135 0 0 4.681567,-4.681567 V 56.226386 a 4.681567,4.681567 45 0 0 -4.681567,-4.681567 l -10.779444,0 a 4.681567,4.681567 135 0 0 -4.681567,4.681567 z m 23.232422,0 v 10.781397 a 4.681567,4.681567 45 0 0 4.681567,4.681567 h 10.779444 a 4.681567,4.681567 135 0 0 4.681567,-4.681567 V 56.226386 A 4.681567,4.681567 45 0 0 88.551076,51.544819 H 77.771632 a 4.681567,4.681567 135 0 0 -4.681567,4.681567 z M 49.857643,79.460761 v 10.779445 a 4.681567,4.681567 45 0 0 4.681567,4.681567 l 10.779444,0 a 4.681567,4.681567 135 0 0 4.681567,-4.681567 V 79.460761 A 4.681567,4.681567 45 0 0 65.318654,74.779194 H 54.53921 a 4.681567,4.681567 135 0 0 -4.681567,4.681567 z m 23.232422,0 v 10.779445 a 4.681567,4.681567 45 0 0 4.681567,4.681567 h 10.779444 a 4.681567,4.681567 135 0 0 4.681567,-4.681567 V 79.460761 A 4.681567,4.681567 45 0 0 88.551076,74.779194 H 77.771632 a 4.681567,4.681567 135 0 0 -4.681567,4.681567 z"
     transform="matrix(0.94466497,0,0,0.94466497,8.3397971,6.6338399)" />
  <path
     style="display:inline;baseline-shift:baseline;overflow:visible;vector-effect:none;fill:currentColor;stroke:none;stroke-linecap:butt;stroke-linejoin:miter;enable-background:accumulate;stop-color:currentColor;stop-opacity:1;opacity:1"
     d="m 25.435547,20.748047 a 4.6871452,4.6871452 0 0 0 -3.314453,1.373047 4.6871452,4.6871452 0 0 0 0,6.628906 l 6.060547,6.060547 -6.060547,6.058594 a 4.6871452,4.6871452 0 0 0 0,6.628906 4.6871452,4.6871452 0 0 0 6.628906,0 L 38.125,38.125 a 4.6876139,4.6876139 0 0 0 0,-6.628906 l -9.375,-9.375 a 4.6871452,4.6871452 0 0 0 -3.314453,-1.373047 z"
     id="path4"
     transform="translate(1.1285729,1.1285729)" />
  <path
     style="display:inline;baseline-shift:baseline;overflow:visible;vector-effect:none;fill:currentColor;stroke:none;stroke-linecap:butt;stroke-linejoin:miter;enable-background:accumulate;stop-color:currentColor;stop-opacity:1;opacity:1"
     d="M 16.060547,2 C 8.3515885,2 2,8.3515885 2,16.060547 v 65.621094 c 0,7.708957 6.3515887,14.060547 14.060547,14.060546 h 29.316406 a 4.6871452,4.6871452 0 0 0 4.6875,-4.685546 4.6871452,4.6871452 0 0 0 -4.6875,-4.6875 H 16.060547 c -2.677752,0 -4.685547,-2.00975 -4.685547,-4.6875 V 16.060547 c 0,-2.677752 2.007795,-4.685547 4.685547,-4.685547 h 65.621094 c 2.67775,0 4.6875,2.007795 4.6875,4.685547 v 28.847656 a 4.6871452,4.6871452 0 0 0 4.6875,4.6875 4.6871452,4.6871452 0 0 0 4.685546,-4.6875 V 16.060547 C 95.742187,8.3515887 89.390598,2 81.681641,2 Z"
     id="rect5"
     transform="translate(1.1285729,1.1285729)" />
</svg>
