<?xml version="1.0" encoding="UTF-8" standalone="no"?>
<!-- Created with Inkscape (http://www.inkscape.org/) -->

<svg
   width="100"
   height="100"
   viewBox="0 0 100 100"
   version="1.1"
   id="svg1"
   sodipodi:docname="ribbon-macos.svg"
   inkscape:version="1.4.3 (0d15f75, 2025-12-25)"
   inkscape:export-filename="ribbon-macos.svg"
   inkscape:export-xdpi="96"
   inkscape:export-ydpi="96"
   xmlns:inkscape="http://www.inkscape.org/namespaces/inkscape"
   xmlns:sodipodi="http://sodipodi.sourceforge.net/DTD/sodipodi-0.dtd"
   xmlns="http://www.w3.org/2000/svg"
   xmlns:svg="http://www.w3.org/2000/svg">
  <sodipodi:namedview
     id="namedview1"
     pagecolor="#ffffff"
     bordercolor="#111111"
     borderopacity="1"
     inkscape:showpageshadow="0"
     inkscape:pageopacity="0"
     inkscape:pagecheckerboard="1"
     inkscape:deskcolor="#d1d1d1"
     inkscape:zoom="3.3681719"
     inkscape:cx="39.338848"
     inkscape:cy="85.803222"
     inkscape:current-layer="svg1" />
  <defs
     id="defs1" />
  <path
     id="path30"
     style="display:inline;fill:currentColor;stroke:none;stroke-width:1.26439"
     d="M 9.8263048,3.032963 C 8.9658142,3.0488715 8.2069482,3.2823096 7.6753719,3.6753972 7.6389878,3.7023024 7.5814064,3.7478411 7.547288,3.777575 7.0370597,4.2222358 6.9685516,4.8161005 7.1268415,5.4468554 7.1378167,5.4905896 7.1113,5.521664 7.0664054,5.5159207 6.3113803,5.4193322 5.7828153,5.2093376 4.9848777,5.1958077 4.9400197,5.195047 4.8669541,5.1950774 4.8216957,5.1955237 0.02159495,5.2428573 -0.71967138,9.4506954 0.60340773,11.413408 c 0.0252974,0.03753 0.0681599,0.0971 0.0948109,0.133683 1.50209657,2.061831 3.07132707,2.759254 4.34805687,2.787724 0.045288,0.001 0.118726,0.001 0.1639429,-8.68e-4 0.6653092,-0.02817 1.5597345,-0.380776 2.5333694,-0.399619 0.044426,-8.6e-4 0.1171468,-8.63e-4 0.1623981,2.9e-5 0.9737436,0.01919 1.8675171,0.371963 2.5325861,0.399653 0.04439,0.0018 0.117132,0.0018 0.16238,8.07e-4 1.276731,-0.02844 2.845974,-0.725844 4.348086,-2.787668 0.02668,-0.03661 0.06956,-0.09621 0.09486,-0.133743 1.323095,-1.962714 0.58258,-6.1705503 -4.217513,-6.2178823 -0.04526,-4.463e-4 -0.118642,-4.78e-4 -0.163896,2.96e-4 -0.7425237,0.012698 -1.2520224,0.1954534 -1.9278937,0.2985571 -0.044479,0.00679 -0.046855,-0.00261 -0.00569,-0.021415 C 8.8815469,5.4032184 9.0306587,5.3222541 9.1836706,5.2276404 9.2221675,5.2038361 9.2840037,5.1643021 9.3214685,5.138909 9.9533736,4.7106135 10.503658,4.0034038 10.840033,3.1928221 10.857376,3.151031 10.834671,3.1104577 10.789991,3.103234 10.517447,3.0591704 10.249517,3.0360711 9.9901989,3.0325649 9.944944,3.031953 9.8715574,3.0321264 9.8263048,3.032963 Z"
     transform="matrix(2.5039438,0,0,3.6859034,57.305529,44.109098)" />
  <path
     style="display:inline;baseline-shift:baseline;overflow:visible;vector-effect:none;fill:currentColor;stroke:none;stroke-linecap:butt;stroke-linejoin:miter;enable-background:accumulate;stop-color:currentColor;stop-opacity:1;opacity:1"
     d="m 25.435547,20.748047 a 4.6871452,4.6871452 0 0 0 -3.314453,1.373047 4.6871452,4.6871452 0 0 0 0,6.628906 l 6.060547,6.060547 -6.060547,6.058594 a 4.6871452,4.6871452 0 0 0 0,6.628906 4.6871452,4.6871452 0 0 0 6.628906,0 L 38.125,38.125 a 4.6876139,4.6876139 0 0 0 0,-6.628906 l -9.375,-9.375 a 4.6871452,4.6871452 0 0 0 -3.314453,-1.373047 z"
     id="path4"
     transform="translate(1.1285729,1.1285729)" />
  <path
     style="display:inline;baseline-shift:baseline;overflow:visible;vector-effect:none;fill:currentColor;stroke:none;stroke-linecap:butt;stroke-linejoin:miter;enable-background:accumulate;stop-color:currentColor;stop-opacity:1;opacity:1"
     d="M 16.060547,2 C 8.3515885,2 2,8.3515885 2,16.060547 v 65.621094 c 0,7.708957 6.3515887,14.060547 14.060547,14.060546 h 33.634765 a 4.6871452,4.6871452 0 0 0 4.6875,-4.685546 4.6871452,4.6871452 0 0 0 -4.6875,-4.6875 H 16.060547 c -2.677752,0 -4.685547,-2.00975 -4.685547,-4.6875 V 16.060547 c 0,-2.677752 2.007795,-4.685547 4.685547,-4.685547 h 65.621094 c 2.67775,0 4.6875,2.007795 4.6875,4.685547 v 33.425781 a 4.6871452,4.6871452 0 0 0 4.6875,4.6875 4.6871452,4.6871452 0 0 0 4.685546,-4.6875 V 16.060547 C 95.742187,8.3515887 89.390598,2 81.681641,2 Z"
     id="rect5"
     transform="translate(1.1285729,1.1285729)" />
</svg>
